Coordinates
version=1
nRows=27
nColumns=38
inDegrees=no

Units are S.I. units (second, meters, Newtons, ...)
If the header above contains a line with 'inDegrees', this indicates whether rotational values are in degrees (yes) or radians (no).

endheader
time	pelvis_tilt	pelvis_list	pelvis_rotation	pelvis_tx	pelvis_ty	pelvis_tz	hip_flexion_r	hip_adduction_r	hip_rotation_r	knee_angle_r	ankle_angle_r	subtalar_angle_r	mtp_angle_r	hip_flexion_l	hip_adduction_l	hip_rotation_l	knee_angle_l	ankle_angle_l	subtalar_angle_l	mtp_angle_l	lumbar_extension	lumbar_bending	lumbar_rotation	arm_flex_r	arm_add_r	arm_rot_r	elbow_flex_r	pro_sup_r	wrist_flex_r	wrist_dev_r	arm_flex_l	arm_add_l	arm_rot_l	elbow_flex_l	pro_sup_l	wrist_flex_l	wrist_dev_l
1.56	0.612795	1.287	0.907651	0.892283	1.4966	1.04154	0.266174	0.045593	-0.136612	1.00158	-0.429736	0	0	0.466951	-0.256495	-0.148053	0.425447	-0.143493	0	0	0.0171381	-0.247149	0.450588	-0.309615	-0.355778	0.161013	0.825333	1.54572	0	0	-0.155389	-0.215886	-0.659603	0.689553	1.4136	0	0
1.57	0.635093	1.28711	0.887894	0.891704	1.50671	1.04319	0.274769	0.0473866	-0.143368	1.00556	-0.408298	0	0	0.451583	-0.260136	-0.147681	0.424799	-0.141103	0	0	0.00986666	-0.246385	0.448306	-0.310905	-0.349589	0.157637	0.819695	1.56072	0	0	-0.154725	-0.219075	-0.65815	0.689716	1.41264	0	0
1.58	0.654328	1.28666	0.870985	0.891155	1.51669	1.04469	0.284091	0.0490731	-0.150249	1.00608	-0.374955	0	0	0.436495	-0.263524	-0.147357	0.422213	-0.136387	0	0	0.00484195	-0.245835	0.443669	-0.309116	-0.34641	0.1631	0.812952	1.56307	0	0	-0.157233	-0.221055	-0.662215	0.692615	1.41566	0	0
1.59	0.67124	1.28584	0.85635	0.890654	1.52657	1.04608	0.293821	0.0505307	-0.157439	1.00259	-0.346727	0	0	0.421316	-0.26671	-0.147631	0.417279	-0.132869	0	0	0.000969867	-0.245312	0.439991	-0.308382	-0.342605	0.165468	0.806885	1.56078	0	0	-0.158954	-0.223057	-0.665215	0.694268	1.4172	0	0
1.6	0.685462	1.28484	0.844663	0.890199	1.53634	1.04738	0.303868	0.0513607	-0.166139	0.996115	-0.319082	0	0	0.406455	-0.269339	-0.148144	0.410632	-0.129939	0	0	-0.00194221	-0.245094	0.436649	-0.308235	-0.338841	0.166666	0.801648	1.55597	0	0	-0.160137	-0.225004	-0.667759	0.695197	1.41745	0	0
1.61	0.697991	1.28381	0.834933	0.889735	1.54607	1.04861	0.313844	0.0516899	-0.176321	0.986764	-0.293227	0	0	0.391978	-0.271563	-0.148618	0.4036	-0.127755	0	0	-0.00418209	-0.244897	0.433674	-0.308534	-0.335179	0.166942	0.796564	1.54906	0	0	-0.160833	-0.226256	-0.67071	0.69576	1.41513	0	0
1.62	0.707536	1.28264	0.828408	0.889254	1.55573	1.04968	0.324048	0.0520075	-0.185854	0.974716	-0.264749	0	0	0.378084	-0.273145	-0.148277	0.396281	-0.125275	0	0	-0.00488532	-0.245008	0.427696	-0.3043	-0.339283	0.18882	0.791677	1.51056	0	0	-0.169741	-0.234869	-0.649816	0.698941	1.38551	0	0
1.63	0.715585	1.28153	0.823476	0.888759	1.56533	1.05066	0.333974	0.0524366	-0.19495	0.959091	-0.242084	0	0	0.364538	-0.27453	-0.148123	0.389338	-0.123278	0	0	-0.00550554	-0.245943	0.422797	-0.301236	-0.33867	0.199057	0.785337	1.48732	0	0	-0.171002	-0.232682	-0.664248	0.701488	1.39507	0	0
1.64	0.720679	1.28044	0.821114	0.888321	1.57489	1.05151	0.344038	0.0529042	-0.202872	0.939616	-0.232649	0	0	0.351333	-0.275527	-0.149755	0.382388	-0.122911	0	0	-0.00694303	-0.246925	0.42181	-0.304826	-0.329234	0.180415	0.781077	1.50268	0	0	-0.17091	-0.2356	-0.659719	0.701081	1.3906	0	0
1.65	0.72564	1.27996	0.819071	0.887863	1.58437	1.05231	0.353107	0.0534103	-0.210624	0.916888	-0.216521	0	0	0.337648	-0.275944	-0.150993	0.375268	-0.121749	0	0	-0.00785283	-0.248342	0.419191	-0.304467	-0.325688	0.178758	0.775901	1.49662	0	0	-0.171633	-0.236003	-0.663221	0.702487	1.39231	0	0
1.66	0.729723	1.27985	0.818006	0.887416	1.59381	1.05302	0.361603	0.0539883	-0.218422	0.890886	-0.201543	0	0	0.323864	-0.275968	-0.152157	0.368043	-0.120638	0	0	-0.00868263	-0.249996	0.416889	-0.303892	-0.323063	0.178737	0.770893	1.4901	0	0	-0.172291	-0.236637	-0.664929	0.703818	1.3941	0	0
1.67	0.732775	1.27988	0.818115	0.886973	1.6032	1.05359	0.369684	0.0547968	-0.225836	0.861531	-0.188554	0	0	0.310431	-0.275764	-0.153524	0.361202	-0.119649	0	0	-0.00926534	-0.251787	0.414908	-0.303257	-0.321117	0.179857	0.766147	1.48316	0	0	-0.172555	-0.23678	-0.666391	0.705399	1.39407	0	0
1.68	0.73527	1.28001	0.818868	0.886515	1.61253	1.05406	0.377267	0.0560105	-0.233045	0.828952	-0.178447	0	0	0.297293	-0.275588	-0.155191	0.354587	-0.118774	0	0	-0.00983473	-0.25338	0.413165	-0.30251	-0.320076	0.182028	0.76169	1.476	0	0	-0.172499	-0.23698	-0.66664	0.706675	1.39477	0	0
1.69	0.735656	1.27989	0.822192	0.886094	1.62179	1.05435	0.384754	0.05764	-0.240193	0.79291	-0.170329	0	0	0.285226	-0.274851	-0.154674	0.348021	-0.117583	0	0	-0.00862875	-0.25487	0.407125	-0.294504	-0.331005	0.22034	0.756907	1.42113	0	0	-0.181487	-0.244781	-0.643972	0.7109	1.3678	0	0
1.7	0.734643	1.28003	0.827467	0.885601	1.63097	1.05451	0.391497	0.0593399	-0.247255	0.753199	-0.166055	0	0	0.273646	-0.273425	-0.153473	0.341625	-0.116457	0	0	-0.00890427	-0.256933	0.406344	-0.295763	-0.326022	0.210415	0.75176	1.43206	0	0	-0.175096	-0.237216	-0.666571	0.712095	1.39383	0	0
1.71	0.731586	1.27975	0.835033	0.885167	1.6401	1.05451	0.398728	0.0614099	-0.253675	0.711923	-0.16345	0	0	0.262937	-0.272003	-0.152241	0.335329	-0.115939	0	0	-0.008373	-0.258798	0.403933	-0.294649	-0.325606	0.212976	0.747292	1.42862	0	0	-0.174721	-0.237139	-0.66513	0.714682	1.39261	0	0
1.72	0.727108	1.27946	0.84453	0.8847	1.64919	1.05434	0.406016	0.0633338	-0.260052	0.669918	-0.161849	0	0	0.252535	-0.270319	-0.151104	0.328513	-0.115757	0	0	-0.00868746	-0.261131	0.399615	-0.292492	-0.325728	0.216264	0.743339	1.426	0	0	-0.175255	-0.236968	-0.66382	0.718552	1.39045	0	0
1.73	0.719577	1.27893	0.857974	0.884152	1.65828	1.05398	0.412938	0.0649095	-0.265469	0.62559	-0.161593	0	0	0.243569	-0.267825	-0.148768	0.322276	-0.115147	0	0	-0.00824304	-0.263569	0.394585	-0.290498	-0.326183	0.219728	0.739569	1.42371	0	0	-0.175742	-0.237286	-0.660848	0.721754	1.3882	0	0
1.74	0.709501	1.27801	0.874954	0.883545	1.66739	1.0534	0.419792	0.0659891	-0.270577	0.580012	-0.159457	0	0	0.23627	-0.264972	-0.145807	0.317215	-0.114697	0	0	-0.00760469	-0.265953	0.391006	-0.291867	-0.323531	0.211367	0.737057	1.43287	0	0	-0.173326	-0.237186	-0.658226	0.723124	1.39035	0	0
1.75	0.701022	1.27741	0.890166	0.882925	1.67645	1.05275	0.424871	0.0679938	-0.273716	0.530868	-0.161926	0	0	0.228212	-0.262416	-0.143392	0.311845	-0.113566	0	0	-0.0072998	-0.268207	0.385768	-0.289989	-0.323791	0.212453	0.733217	1.43383	0	0	-0.17271	-0.236082	-0.65816	0.726564	1.39109	0	0
1.76	0.692541	1.27731	0.905126	0.882331	1.68548	1.05205	0.428489	0.0699635	-0.27478	0.479571	-0.167846	0	0	0.219393	-0.259701	-0.142226	0.305989	-0.112288	0	0	-0.00770687	-0.270521	0.380833	-0.287675	-0.324716	0.214214	0.729632	1.4344	0	0	-0.171614	-0.234558	-0.65829	0.729966	1.39096	0	0
1.77	0.681148	1.27708	0.922841	0.881762	1.69451	1.05117	0.431513	0.0722252	-0.272297	0.425379	-0.177657	0	0	0.211212	-0.256476	-0.141674	0.30031	-0.110866	0	0	-0.00650419	-0.272737	0.373388	-0.28085	-0.334013	0.241317	0.726776	1.40205	0	0	-0.177068	-0.238853	-0.640751	0.734546	1.36825	0	0
1.78	0.668373	1.27679	0.941916	0.881199	1.70354	1.05013	0.43343	0.0750288	-0.266133	0.367995	-0.189837	0	0	0.203302	-0.253014	-0.140949	0.294637	-0.109656	0	0	-0.00669184	-0.275011	0.371385	-0.283456	-0.329531	0.222434	0.724904	1.42517	0	0	-0.171012	-0.233899	-0.648779	0.735229	1.38172	0	0
1.79	0.653239	1.27616	0.963698	0.880606	1.71264	1.04885	0.435968	0.0771954	-0.258966	0.312411	-0.193264	0	0	0.19617	-0.249272	-0.14037	0.289235	-0.108939	0	0	-0.00508202	-0.27712	0.366665	-0.281907	-0.332716	0.227284	0.723454	1.4167	0	0	-0.170597	-0.232982	-0.645596	0.737243	1.38074	0	0
1.8	0.637399	1.27571	0.986503	0.879991	1.72183	1.0474	0.438582	0.0787008	-0.251084	0.258534	-0.20293	0	0	0.188944	-0.245365	-0.139754	0.283933	-0.107397	0	0	-0.00442715	-0.279489	0.361833	-0.281675	-0.333301	0.22325	0.722397	1.42056	0	0	-0.169674	-0.231331	-0.644435	0.739524	1.38318	0	0
1.81	0.619926	1.2746	1.01111	0.879385	1.73105	1.04575	0.441777	0.0798896	-0.241642	0.205288	-0.213382	0	0	0.183009	-0.241602	-0.139028	0.279852	-0.105368	0	0	-0.00271621	-0.281603	0.35657	-0.281004	-0.334343	0.220748	0.720922	1.42287	0	0	-0.169744	-0.230428	-0.641291	0.741556	1.38373	0	0
1.82	0.602445	1.27303	1.03555	0.878877	1.74029	1.04395	0.445407	0.0810333	-0.230218	0.153652	-0.222772	0	0	0.177402	-0.238272	-0.139957	0.276377	-0.102968	0	0	-0.000672926	-0.283175	0.351482	-0.280323	-0.335767	0.218678	0.719868	1.42375	0	0	-0.170394	-0.229559	-0.637644	0.743974	1.38306	0	0
